<mxfile host="app.diagrams.net" agent="Mozilla/5.0 (Windows NT 10.0; Win64; x64) AppleWebKit/537.36 (KHTML, like Gecko) Chrome/136.0.0.0 Safari/537.36" version="27.0.6">
  <diagram name="Pagina-1" id="yBcGgoNggc4y1JCWJ7IK">
    <mxGraphModel dx="3080" dy="777" grid="1" gridSize="10" guides="1" tooltips="1" connect="1" arrows="1" fold="1" page="1" pageScale="1" pageWidth="827" pageHeight="1169" math="0" shadow="0">
      <root>
        <mxCell id="0" />
        <mxCell id="1" parent="0" />
        <mxCell id="eE0-tFrMwfxBOJ-XWU5g-33" style="edgeStyle=orthogonalEdgeStyle;rounded=0;orthogonalLoop=1;jettySize=auto;html=1;exitX=0.5;exitY=1;exitDx=0;exitDy=0;" edge="1" parent="1" source="eE0-tFrMwfxBOJ-XWU5g-1" target="eE0-tFrMwfxBOJ-XWU5g-10">
          <mxGeometry relative="1" as="geometry" />
        </mxCell>
        <mxCell id="eE0-tFrMwfxBOJ-XWU5g-34" style="edgeStyle=orthogonalEdgeStyle;rounded=0;orthogonalLoop=1;jettySize=auto;html=1;exitX=0.5;exitY=1;exitDx=0;exitDy=0;" edge="1" parent="1" source="eE0-tFrMwfxBOJ-XWU5g-1" target="eE0-tFrMwfxBOJ-XWU5g-11">
          <mxGeometry relative="1" as="geometry" />
        </mxCell>
        <mxCell id="eE0-tFrMwfxBOJ-XWU5g-35" style="edgeStyle=orthogonalEdgeStyle;rounded=0;orthogonalLoop=1;jettySize=auto;html=1;exitX=0.5;exitY=1;exitDx=0;exitDy=0;" edge="1" parent="1" source="eE0-tFrMwfxBOJ-XWU5g-1" target="eE0-tFrMwfxBOJ-XWU5g-5">
          <mxGeometry relative="1" as="geometry" />
        </mxCell>
        <mxCell id="eE0-tFrMwfxBOJ-XWU5g-36" style="edgeStyle=orthogonalEdgeStyle;rounded=0;orthogonalLoop=1;jettySize=auto;html=1;exitX=0.5;exitY=1;exitDx=0;exitDy=0;" edge="1" parent="1" source="eE0-tFrMwfxBOJ-XWU5g-1" target="eE0-tFrMwfxBOJ-XWU5g-3">
          <mxGeometry relative="1" as="geometry" />
        </mxCell>
        <mxCell id="eE0-tFrMwfxBOJ-XWU5g-37" style="edgeStyle=orthogonalEdgeStyle;rounded=0;orthogonalLoop=1;jettySize=auto;html=1;exitX=0.5;exitY=1;exitDx=0;exitDy=0;entryX=0.5;entryY=0;entryDx=0;entryDy=0;" edge="1" parent="1" source="eE0-tFrMwfxBOJ-XWU5g-1" target="eE0-tFrMwfxBOJ-XWU5g-2">
          <mxGeometry relative="1" as="geometry" />
        </mxCell>
        <mxCell id="eE0-tFrMwfxBOJ-XWU5g-38" style="edgeStyle=orthogonalEdgeStyle;rounded=0;orthogonalLoop=1;jettySize=auto;html=1;exitX=0.5;exitY=1;exitDx=0;exitDy=0;entryX=0.5;entryY=0;entryDx=0;entryDy=0;" edge="1" parent="1" source="eE0-tFrMwfxBOJ-XWU5g-1" target="eE0-tFrMwfxBOJ-XWU5g-6">
          <mxGeometry relative="1" as="geometry" />
        </mxCell>
        <mxCell id="eE0-tFrMwfxBOJ-XWU5g-39" style="edgeStyle=orthogonalEdgeStyle;rounded=0;orthogonalLoop=1;jettySize=auto;html=1;exitX=0.5;exitY=1;exitDx=0;exitDy=0;entryX=0.5;entryY=0;entryDx=0;entryDy=0;" edge="1" parent="1" source="eE0-tFrMwfxBOJ-XWU5g-1" target="eE0-tFrMwfxBOJ-XWU5g-4">
          <mxGeometry relative="1" as="geometry" />
        </mxCell>
        <mxCell id="eE0-tFrMwfxBOJ-XWU5g-40" style="edgeStyle=orthogonalEdgeStyle;rounded=0;orthogonalLoop=1;jettySize=auto;html=1;exitX=0.5;exitY=1;exitDx=0;exitDy=0;entryX=0.5;entryY=0;entryDx=0;entryDy=0;" edge="1" parent="1" source="eE0-tFrMwfxBOJ-XWU5g-1" target="eE0-tFrMwfxBOJ-XWU5g-12">
          <mxGeometry relative="1" as="geometry" />
        </mxCell>
        <mxCell id="eE0-tFrMwfxBOJ-XWU5g-1" value="Sportify - Piattaforma Web per Gestione Calcetti e Tornei" style="rounded=0;whiteSpace=wrap;html=1;" vertex="1" parent="1">
          <mxGeometry x="370" y="150" width="250" height="60" as="geometry" />
        </mxCell>
        <mxCell id="eE0-tFrMwfxBOJ-XWU5g-68" style="edgeStyle=orthogonalEdgeStyle;rounded=0;orthogonalLoop=1;jettySize=auto;html=1;exitX=0.5;exitY=1;exitDx=0;exitDy=0;entryX=1;entryY=0.5;entryDx=0;entryDy=0;" edge="1" parent="1" source="eE0-tFrMwfxBOJ-XWU5g-2" target="eE0-tFrMwfxBOJ-XWU5g-62">
          <mxGeometry relative="1" as="geometry" />
        </mxCell>
        <mxCell id="eE0-tFrMwfxBOJ-XWU5g-69" style="edgeStyle=orthogonalEdgeStyle;rounded=0;orthogonalLoop=1;jettySize=auto;html=1;exitX=0.5;exitY=1;exitDx=0;exitDy=0;entryX=0;entryY=0.5;entryDx=0;entryDy=0;" edge="1" parent="1" source="eE0-tFrMwfxBOJ-XWU5g-2" target="eE0-tFrMwfxBOJ-XWU5g-61">
          <mxGeometry relative="1" as="geometry" />
        </mxCell>
        <mxCell id="eE0-tFrMwfxBOJ-XWU5g-70" style="edgeStyle=orthogonalEdgeStyle;rounded=0;orthogonalLoop=1;jettySize=auto;html=1;exitX=0.5;exitY=1;exitDx=0;exitDy=0;entryX=1;entryY=0.5;entryDx=0;entryDy=0;" edge="1" parent="1" source="eE0-tFrMwfxBOJ-XWU5g-2" target="eE0-tFrMwfxBOJ-XWU5g-64">
          <mxGeometry relative="1" as="geometry" />
        </mxCell>
        <mxCell id="eE0-tFrMwfxBOJ-XWU5g-71" style="edgeStyle=orthogonalEdgeStyle;rounded=0;orthogonalLoop=1;jettySize=auto;html=1;exitX=0.5;exitY=1;exitDx=0;exitDy=0;entryX=0;entryY=0.5;entryDx=0;entryDy=0;" edge="1" parent="1" source="eE0-tFrMwfxBOJ-XWU5g-2" target="eE0-tFrMwfxBOJ-XWU5g-65">
          <mxGeometry relative="1" as="geometry" />
        </mxCell>
        <mxCell id="eE0-tFrMwfxBOJ-XWU5g-72" style="edgeStyle=orthogonalEdgeStyle;rounded=0;orthogonalLoop=1;jettySize=auto;html=1;exitX=0.5;exitY=1;exitDx=0;exitDy=0;entryX=1;entryY=0.5;entryDx=0;entryDy=0;" edge="1" parent="1" source="eE0-tFrMwfxBOJ-XWU5g-2" target="eE0-tFrMwfxBOJ-XWU5g-63">
          <mxGeometry relative="1" as="geometry" />
        </mxCell>
        <mxCell id="eE0-tFrMwfxBOJ-XWU5g-73" style="edgeStyle=orthogonalEdgeStyle;rounded=0;orthogonalLoop=1;jettySize=auto;html=1;exitX=0.5;exitY=1;exitDx=0;exitDy=0;entryX=0;entryY=0.5;entryDx=0;entryDy=0;" edge="1" parent="1" source="eE0-tFrMwfxBOJ-XWU5g-2" target="eE0-tFrMwfxBOJ-XWU5g-67">
          <mxGeometry relative="1" as="geometry" />
        </mxCell>
        <mxCell id="eE0-tFrMwfxBOJ-XWU5g-2" value="Funzionalità Tornei" style="rounded=0;whiteSpace=wrap;html=1;" vertex="1" parent="1">
          <mxGeometry x="656" y="280" width="120" height="60" as="geometry" />
        </mxCell>
        <mxCell id="eE0-tFrMwfxBOJ-XWU5g-56" style="edgeStyle=orthogonalEdgeStyle;rounded=0;orthogonalLoop=1;jettySize=auto;html=1;exitX=0.5;exitY=1;exitDx=0;exitDy=0;entryX=0;entryY=0.5;entryDx=0;entryDy=0;" edge="1" parent="1" source="eE0-tFrMwfxBOJ-XWU5g-3" target="eE0-tFrMwfxBOJ-XWU5g-52">
          <mxGeometry relative="1" as="geometry" />
        </mxCell>
        <mxCell id="eE0-tFrMwfxBOJ-XWU5g-57" style="edgeStyle=orthogonalEdgeStyle;rounded=0;orthogonalLoop=1;jettySize=auto;html=1;exitX=0.5;exitY=1;exitDx=0;exitDy=0;entryX=1;entryY=0.5;entryDx=0;entryDy=0;" edge="1" parent="1" source="eE0-tFrMwfxBOJ-XWU5g-3" target="eE0-tFrMwfxBOJ-XWU5g-54">
          <mxGeometry relative="1" as="geometry" />
        </mxCell>
        <mxCell id="eE0-tFrMwfxBOJ-XWU5g-58" style="edgeStyle=orthogonalEdgeStyle;rounded=0;orthogonalLoop=1;jettySize=auto;html=1;exitX=0.5;exitY=1;exitDx=0;exitDy=0;entryX=0;entryY=0.5;entryDx=0;entryDy=0;" edge="1" parent="1" source="eE0-tFrMwfxBOJ-XWU5g-3" target="eE0-tFrMwfxBOJ-XWU5g-55">
          <mxGeometry relative="1" as="geometry" />
        </mxCell>
        <mxCell id="eE0-tFrMwfxBOJ-XWU5g-60" style="edgeStyle=orthogonalEdgeStyle;rounded=0;orthogonalLoop=1;jettySize=auto;html=1;exitX=0.5;exitY=1;exitDx=0;exitDy=0;entryX=1;entryY=0.5;entryDx=0;entryDy=0;" edge="1" parent="1" source="eE0-tFrMwfxBOJ-XWU5g-3" target="eE0-tFrMwfxBOJ-XWU5g-53">
          <mxGeometry relative="1" as="geometry" />
        </mxCell>
        <mxCell id="eE0-tFrMwfxBOJ-XWU5g-3" value="Funzionalità Calcetti" style="rounded=0;whiteSpace=wrap;html=1;" vertex="1" parent="1">
          <mxGeometry x="294" y="280" width="120" height="60" as="geometry" />
        </mxCell>
        <mxCell id="eE0-tFrMwfxBOJ-XWU5g-89" style="edgeStyle=orthogonalEdgeStyle;rounded=0;orthogonalLoop=1;jettySize=auto;html=1;exitX=0.5;exitY=1;exitDx=0;exitDy=0;entryX=1;entryY=0.5;entryDx=0;entryDy=0;" edge="1" parent="1" source="eE0-tFrMwfxBOJ-XWU5g-4" target="eE0-tFrMwfxBOJ-XWU5g-86">
          <mxGeometry relative="1" as="geometry" />
        </mxCell>
        <mxCell id="eE0-tFrMwfxBOJ-XWU5g-90" style="edgeStyle=orthogonalEdgeStyle;rounded=0;orthogonalLoop=1;jettySize=auto;html=1;exitX=0.5;exitY=1;exitDx=0;exitDy=0;entryX=0;entryY=0.5;entryDx=0;entryDy=0;" edge="1" parent="1" source="eE0-tFrMwfxBOJ-XWU5g-4" target="eE0-tFrMwfxBOJ-XWU5g-88">
          <mxGeometry relative="1" as="geometry" />
        </mxCell>
        <mxCell id="eE0-tFrMwfxBOJ-XWU5g-91" style="edgeStyle=orthogonalEdgeStyle;rounded=0;orthogonalLoop=1;jettySize=auto;html=1;exitX=0.5;exitY=1;exitDx=0;exitDy=0;entryX=1;entryY=0.5;entryDx=0;entryDy=0;" edge="1" parent="1" source="eE0-tFrMwfxBOJ-XWU5g-4" target="eE0-tFrMwfxBOJ-XWU5g-87">
          <mxGeometry relative="1" as="geometry" />
        </mxCell>
        <mxCell id="eE0-tFrMwfxBOJ-XWU5g-92" style="edgeStyle=orthogonalEdgeStyle;rounded=0;orthogonalLoop=1;jettySize=auto;html=1;exitX=0.5;exitY=1;exitDx=0;exitDy=0;entryX=0;entryY=0.5;entryDx=0;entryDy=0;" edge="1" parent="1" source="eE0-tFrMwfxBOJ-XWU5g-4" target="eE0-tFrMwfxBOJ-XWU5g-85">
          <mxGeometry relative="1" as="geometry">
            <Array as="points">
              <mxPoint x="1290" y="615" />
            </Array>
          </mxGeometry>
        </mxCell>
        <mxCell id="eE0-tFrMwfxBOJ-XWU5g-4" value="Testing e Deployment" style="rounded=0;whiteSpace=wrap;html=1;" vertex="1" parent="1">
          <mxGeometry x="1230" y="280" width="120" height="60" as="geometry" />
        </mxCell>
        <mxCell id="eE0-tFrMwfxBOJ-XWU5g-47" style="edgeStyle=orthogonalEdgeStyle;rounded=0;orthogonalLoop=1;jettySize=auto;html=1;exitX=0.5;exitY=1;exitDx=0;exitDy=0;entryX=1;entryY=0.5;entryDx=0;entryDy=0;" edge="1" parent="1" source="eE0-tFrMwfxBOJ-XWU5g-5" target="eE0-tFrMwfxBOJ-XWU5g-43">
          <mxGeometry relative="1" as="geometry" />
        </mxCell>
        <mxCell id="eE0-tFrMwfxBOJ-XWU5g-48" style="edgeStyle=orthogonalEdgeStyle;rounded=0;orthogonalLoop=1;jettySize=auto;html=1;exitX=0.5;exitY=1;exitDx=0;exitDy=0;entryX=0;entryY=0.5;entryDx=0;entryDy=0;" edge="1" parent="1" source="eE0-tFrMwfxBOJ-XWU5g-5" target="eE0-tFrMwfxBOJ-XWU5g-42">
          <mxGeometry relative="1" as="geometry" />
        </mxCell>
        <mxCell id="eE0-tFrMwfxBOJ-XWU5g-49" style="edgeStyle=orthogonalEdgeStyle;rounded=0;orthogonalLoop=1;jettySize=auto;html=1;exitX=0.5;exitY=1;exitDx=0;exitDy=0;entryX=0;entryY=0.5;entryDx=0;entryDy=0;" edge="1" parent="1" source="eE0-tFrMwfxBOJ-XWU5g-5" target="eE0-tFrMwfxBOJ-XWU5g-41">
          <mxGeometry relative="1" as="geometry" />
        </mxCell>
        <mxCell id="eE0-tFrMwfxBOJ-XWU5g-51" style="edgeStyle=orthogonalEdgeStyle;rounded=0;orthogonalLoop=1;jettySize=auto;html=1;exitX=0.5;exitY=1;exitDx=0;exitDy=0;entryX=1;entryY=0.5;entryDx=0;entryDy=0;" edge="1" parent="1" source="eE0-tFrMwfxBOJ-XWU5g-5" target="eE0-tFrMwfxBOJ-XWU5g-45">
          <mxGeometry relative="1" as="geometry" />
        </mxCell>
        <mxCell id="eE0-tFrMwfxBOJ-XWU5g-5" value="Frontend Development" style="rounded=0;whiteSpace=wrap;html=1;" vertex="1" parent="1">
          <mxGeometry x="60" y="280" width="120" height="60" as="geometry" />
        </mxCell>
        <mxCell id="eE0-tFrMwfxBOJ-XWU5g-80" style="edgeStyle=orthogonalEdgeStyle;rounded=0;orthogonalLoop=1;jettySize=auto;html=1;exitX=0.5;exitY=1;exitDx=0;exitDy=0;entryX=0;entryY=0.5;entryDx=0;entryDy=0;" edge="1" parent="1" source="eE0-tFrMwfxBOJ-XWU5g-6" target="eE0-tFrMwfxBOJ-XWU5g-78">
          <mxGeometry relative="1" as="geometry" />
        </mxCell>
        <mxCell id="eE0-tFrMwfxBOJ-XWU5g-81" style="edgeStyle=orthogonalEdgeStyle;rounded=0;orthogonalLoop=1;jettySize=auto;html=1;exitX=0.5;exitY=1;exitDx=0;exitDy=0;entryX=1;entryY=0.5;entryDx=0;entryDy=0;" edge="1" parent="1" source="eE0-tFrMwfxBOJ-XWU5g-6" target="eE0-tFrMwfxBOJ-XWU5g-76">
          <mxGeometry relative="1" as="geometry" />
        </mxCell>
        <mxCell id="eE0-tFrMwfxBOJ-XWU5g-82" style="edgeStyle=orthogonalEdgeStyle;rounded=0;orthogonalLoop=1;jettySize=auto;html=1;exitX=0.5;exitY=1;exitDx=0;exitDy=0;entryX=0;entryY=0.5;entryDx=0;entryDy=0;" edge="1" parent="1" source="eE0-tFrMwfxBOJ-XWU5g-6" target="eE0-tFrMwfxBOJ-XWU5g-74">
          <mxGeometry relative="1" as="geometry" />
        </mxCell>
        <mxCell id="eE0-tFrMwfxBOJ-XWU5g-84" style="edgeStyle=orthogonalEdgeStyle;rounded=0;orthogonalLoop=1;jettySize=auto;html=1;exitX=0.5;exitY=1;exitDx=0;exitDy=0;entryX=1;entryY=0.5;entryDx=0;entryDy=0;" edge="1" parent="1" source="eE0-tFrMwfxBOJ-XWU5g-6" target="eE0-tFrMwfxBOJ-XWU5g-75">
          <mxGeometry relative="1" as="geometry" />
        </mxCell>
        <mxCell id="eE0-tFrMwfxBOJ-XWU5g-6" value="Sicurezza e Ottimizzazione" style="rounded=0;whiteSpace=wrap;html=1;" vertex="1" parent="1">
          <mxGeometry x="900" y="280" width="120" height="60" as="geometry" />
        </mxCell>
        <mxCell id="eE0-tFrMwfxBOJ-XWU5g-9" value="Raccolta requisiti fondamentali" style="rounded=0;whiteSpace=wrap;html=1;" vertex="1" parent="1">
          <mxGeometry x="-840" y="285" width="100" height="50" as="geometry" />
        </mxCell>
        <mxCell id="eE0-tFrMwfxBOJ-XWU5g-22" style="edgeStyle=orthogonalEdgeStyle;rounded=0;orthogonalLoop=1;jettySize=auto;html=1;exitX=0;exitY=0.5;exitDx=0;exitDy=0;entryX=1;entryY=0.5;entryDx=0;entryDy=0;" edge="1" parent="1" source="eE0-tFrMwfxBOJ-XWU5g-10" target="eE0-tFrMwfxBOJ-XWU5g-9">
          <mxGeometry relative="1" as="geometry" />
        </mxCell>
        <mxCell id="eE0-tFrMwfxBOJ-XWU5g-23" style="edgeStyle=orthogonalEdgeStyle;rounded=0;orthogonalLoop=1;jettySize=auto;html=1;exitX=0.5;exitY=1;exitDx=0;exitDy=0;entryX=1;entryY=0.5;entryDx=0;entryDy=0;" edge="1" parent="1" source="eE0-tFrMwfxBOJ-XWU5g-10" target="eE0-tFrMwfxBOJ-XWU5g-13">
          <mxGeometry relative="1" as="geometry" />
        </mxCell>
        <mxCell id="eE0-tFrMwfxBOJ-XWU5g-24" style="edgeStyle=orthogonalEdgeStyle;rounded=0;orthogonalLoop=1;jettySize=auto;html=1;exitX=0.5;exitY=1;exitDx=0;exitDy=0;entryX=0.5;entryY=0;entryDx=0;entryDy=0;" edge="1" parent="1" source="eE0-tFrMwfxBOJ-XWU5g-10" target="eE0-tFrMwfxBOJ-XWU5g-14">
          <mxGeometry relative="1" as="geometry" />
        </mxCell>
        <mxCell id="eE0-tFrMwfxBOJ-XWU5g-26" style="edgeStyle=orthogonalEdgeStyle;rounded=0;orthogonalLoop=1;jettySize=auto;html=1;exitX=0.5;exitY=1;exitDx=0;exitDy=0;entryX=0.5;entryY=0;entryDx=0;entryDy=0;" edge="1" parent="1" source="eE0-tFrMwfxBOJ-XWU5g-10" target="eE0-tFrMwfxBOJ-XWU5g-15">
          <mxGeometry relative="1" as="geometry" />
        </mxCell>
        <mxCell id="eE0-tFrMwfxBOJ-XWU5g-10" value="Analisi e Progettazione" style="rounded=0;whiteSpace=wrap;html=1;" vertex="1" parent="1">
          <mxGeometry x="-650" y="280" width="120" height="60" as="geometry" />
        </mxCell>
        <mxCell id="eE0-tFrMwfxBOJ-XWU5g-28" style="edgeStyle=orthogonalEdgeStyle;rounded=0;orthogonalLoop=1;jettySize=auto;html=1;exitX=0.5;exitY=1;exitDx=0;exitDy=0;entryX=0.5;entryY=0;entryDx=0;entryDy=0;" edge="1" parent="1" source="eE0-tFrMwfxBOJ-XWU5g-11" target="eE0-tFrMwfxBOJ-XWU5g-19">
          <mxGeometry relative="1" as="geometry" />
        </mxCell>
        <mxCell id="eE0-tFrMwfxBOJ-XWU5g-29" style="edgeStyle=orthogonalEdgeStyle;rounded=0;orthogonalLoop=1;jettySize=auto;html=1;exitX=0.5;exitY=1;exitDx=0;exitDy=0;" edge="1" parent="1" source="eE0-tFrMwfxBOJ-XWU5g-11" target="eE0-tFrMwfxBOJ-XWU5g-20">
          <mxGeometry relative="1" as="geometry" />
        </mxCell>
        <mxCell id="eE0-tFrMwfxBOJ-XWU5g-30" style="edgeStyle=orthogonalEdgeStyle;rounded=0;orthogonalLoop=1;jettySize=auto;html=1;exitX=0.5;exitY=1;exitDx=0;exitDy=0;entryX=0.5;entryY=0;entryDx=0;entryDy=0;" edge="1" parent="1" source="eE0-tFrMwfxBOJ-XWU5g-11" target="eE0-tFrMwfxBOJ-XWU5g-27">
          <mxGeometry relative="1" as="geometry" />
        </mxCell>
        <mxCell id="eE0-tFrMwfxBOJ-XWU5g-31" style="edgeStyle=orthogonalEdgeStyle;rounded=0;orthogonalLoop=1;jettySize=auto;html=1;exitX=0.5;exitY=1;exitDx=0;exitDy=0;entryX=0.5;entryY=0;entryDx=0;entryDy=0;" edge="1" parent="1" source="eE0-tFrMwfxBOJ-XWU5g-11" target="eE0-tFrMwfxBOJ-XWU5g-21">
          <mxGeometry relative="1" as="geometry" />
        </mxCell>
        <mxCell id="eE0-tFrMwfxBOJ-XWU5g-32" style="edgeStyle=orthogonalEdgeStyle;rounded=0;orthogonalLoop=1;jettySize=auto;html=1;exitX=0.5;exitY=1;exitDx=0;exitDy=0;entryX=0.25;entryY=0;entryDx=0;entryDy=0;" edge="1" parent="1" source="eE0-tFrMwfxBOJ-XWU5g-11" target="eE0-tFrMwfxBOJ-XWU5g-18">
          <mxGeometry relative="1" as="geometry" />
        </mxCell>
        <mxCell id="eE0-tFrMwfxBOJ-XWU5g-11" value="Backend Development" style="rounded=0;whiteSpace=wrap;html=1;" vertex="1" parent="1">
          <mxGeometry x="-400" y="280" width="120" height="60" as="geometry" />
        </mxCell>
        <mxCell id="eE0-tFrMwfxBOJ-XWU5g-97" style="edgeStyle=orthogonalEdgeStyle;rounded=0;orthogonalLoop=1;jettySize=auto;html=1;exitX=0.5;exitY=1;exitDx=0;exitDy=0;entryX=0;entryY=0.5;entryDx=0;entryDy=0;" edge="1" parent="1" source="eE0-tFrMwfxBOJ-XWU5g-12" target="eE0-tFrMwfxBOJ-XWU5g-93">
          <mxGeometry relative="1" as="geometry" />
        </mxCell>
        <mxCell id="eE0-tFrMwfxBOJ-XWU5g-98" style="edgeStyle=orthogonalEdgeStyle;rounded=0;orthogonalLoop=1;jettySize=auto;html=1;exitX=0.5;exitY=1;exitDx=0;exitDy=0;entryX=1;entryY=0.5;entryDx=0;entryDy=0;" edge="1" parent="1" source="eE0-tFrMwfxBOJ-XWU5g-12" target="eE0-tFrMwfxBOJ-XWU5g-96">
          <mxGeometry relative="1" as="geometry">
            <Array as="points">
              <mxPoint x="1500" y="530" />
            </Array>
          </mxGeometry>
        </mxCell>
        <mxCell id="eE0-tFrMwfxBOJ-XWU5g-99" style="edgeStyle=orthogonalEdgeStyle;rounded=0;orthogonalLoop=1;jettySize=auto;html=1;exitX=0.5;exitY=1;exitDx=0;exitDy=0;entryX=0;entryY=0.5;entryDx=0;entryDy=0;" edge="1" parent="1" source="eE0-tFrMwfxBOJ-XWU5g-12" target="eE0-tFrMwfxBOJ-XWU5g-95">
          <mxGeometry relative="1" as="geometry" />
        </mxCell>
        <mxCell id="eE0-tFrMwfxBOJ-XWU5g-100" style="edgeStyle=orthogonalEdgeStyle;rounded=0;orthogonalLoop=1;jettySize=auto;html=1;exitX=0.5;exitY=1;exitDx=0;exitDy=0;entryX=0;entryY=0.617;entryDx=0;entryDy=0;entryPerimeter=0;" edge="1" parent="1" source="eE0-tFrMwfxBOJ-XWU5g-12" target="eE0-tFrMwfxBOJ-XWU5g-94">
          <mxGeometry relative="1" as="geometry">
            <mxPoint x="1600" y="660" as="targetPoint" />
          </mxGeometry>
        </mxCell>
        <mxCell id="eE0-tFrMwfxBOJ-XWU5g-12" value="Documentazione e Presentazione" style="rounded=0;whiteSpace=wrap;html=1;" vertex="1" parent="1">
          <mxGeometry x="1440" y="280" width="120" height="60" as="geometry" />
        </mxCell>
        <mxCell id="eE0-tFrMwfxBOJ-XWU5g-13" value="Modellazione database" style="rounded=0;whiteSpace=wrap;html=1;" vertex="1" parent="1">
          <mxGeometry x="-840" y="380" width="100" height="50" as="geometry" />
        </mxCell>
        <mxCell id="eE0-tFrMwfxBOJ-XWU5g-14" value="UI/UX mockup e prototipi principali" style="rounded=0;whiteSpace=wrap;html=1;" vertex="1" parent="1">
          <mxGeometry x="-600" y="535" width="100" height="50" as="geometry" />
        </mxCell>
        <mxCell id="eE0-tFrMwfxBOJ-XWU5g-15" value="Implementazione diagramma casi d&#39;uso ed UML" style="rounded=0;whiteSpace=wrap;html=1;" vertex="1" parent="1">
          <mxGeometry x="-790" y="540" width="100" height="50" as="geometry" />
        </mxCell>
        <mxCell id="eE0-tFrMwfxBOJ-XWU5g-18" value="Gestione utenti e sessioni" style="rounded=0;whiteSpace=wrap;html=1;" vertex="1" parent="1">
          <mxGeometry x="-270" y="635" width="100" height="50" as="geometry" />
        </mxCell>
        <mxCell id="eE0-tFrMwfxBOJ-XWU5g-19" value="Setup ambiente (XAMPP, database)" style="rounded=0;whiteSpace=wrap;html=1;" vertex="1" parent="1">
          <mxGeometry x="-480" y="420" width="100" height="50" as="geometry" />
        </mxCell>
        <mxCell id="eE0-tFrMwfxBOJ-XWU5g-20" value="Autenticazione utente" style="rounded=0;whiteSpace=wrap;html=1;" vertex="1" parent="1">
          <mxGeometry x="-463" y="635" width="100" height="50" as="geometry" />
        </mxCell>
        <mxCell id="eE0-tFrMwfxBOJ-XWU5g-21" value="Gestione tornei a squadre" style="rounded=0;whiteSpace=wrap;html=1;" vertex="1" parent="1">
          <mxGeometry x="-230" y="420" width="100" height="50" as="geometry" />
        </mxCell>
        <mxCell id="eE0-tFrMwfxBOJ-XWU5g-27" value="Gestione calcetti" style="rounded=0;whiteSpace=wrap;html=1;" vertex="1" parent="1">
          <mxGeometry x="-390" y="720" width="100" height="50" as="geometry" />
        </mxCell>
        <mxCell id="eE0-tFrMwfxBOJ-XWU5g-41" value="Interfaccia gestione squadre" style="rounded=0;whiteSpace=wrap;html=1;" vertex="1" parent="1">
          <mxGeometry x="160" y="520" width="100" height="50" as="geometry" />
        </mxCell>
        <mxCell id="eE0-tFrMwfxBOJ-XWU5g-42" value="Form registrazione/login" style="rounded=0;whiteSpace=wrap;html=1;" vertex="1" parent="1">
          <mxGeometry x="140" y="400" width="100" height="50" as="geometry" />
        </mxCell>
        <mxCell id="eE0-tFrMwfxBOJ-XWU5g-43" value="Layout responsive e stili" style="rounded=0;whiteSpace=wrap;html=1;" vertex="1" parent="1">
          <mxGeometry x="-80" y="380" width="100" height="50" as="geometry" />
        </mxCell>
        <mxCell id="eE0-tFrMwfxBOJ-XWU5g-44" value="Integrazione con backend (AJAX / fetch)" style="rounded=0;whiteSpace=wrap;html=1;" vertex="1" parent="1">
          <mxGeometry x="60" y="680" width="110" height="55" as="geometry" />
        </mxCell>
        <mxCell id="eE0-tFrMwfxBOJ-XWU5g-45" value="Visualizzazione calendari/tornei" style="rounded=0;whiteSpace=wrap;html=1;" vertex="1" parent="1">
          <mxGeometry x="-90" y="535" width="100" height="50" as="geometry" />
        </mxCell>
        <mxCell id="eE0-tFrMwfxBOJ-XWU5g-50" style="edgeStyle=orthogonalEdgeStyle;rounded=0;orthogonalLoop=1;jettySize=auto;html=1;exitX=0.5;exitY=1;exitDx=0;exitDy=0;" edge="1" parent="1" source="eE0-tFrMwfxBOJ-XWU5g-5">
          <mxGeometry relative="1" as="geometry">
            <mxPoint x="120" y="680" as="targetPoint" />
          </mxGeometry>
        </mxCell>
        <mxCell id="eE0-tFrMwfxBOJ-XWU5g-52" value="Iscrizione/abbandono calcetto" style="rounded=0;whiteSpace=wrap;html=1;" vertex="1" parent="1">
          <mxGeometry x="414" y="460" width="116" height="50" as="geometry" />
        </mxCell>
        <mxCell id="eE0-tFrMwfxBOJ-XWU5g-53" value="Creazione calcetto" style="rounded=0;whiteSpace=wrap;html=1;" vertex="1" parent="1">
          <mxGeometry x="210" y="460" width="100" height="50" as="geometry" />
        </mxCell>
        <mxCell id="eE0-tFrMwfxBOJ-XWU5g-54" value="Visualizzazione lista calcetti" style="rounded=0;whiteSpace=wrap;html=1;" vertex="1" parent="1">
          <mxGeometry x="200" y="620" width="100" height="50" as="geometry" />
        </mxCell>
        <mxCell id="eE0-tFrMwfxBOJ-XWU5g-55" value="Sistema di chat calcetto" style="rounded=0;whiteSpace=wrap;html=1;" vertex="1" parent="1">
          <mxGeometry x="420" y="620" width="100" height="50" as="geometry" />
        </mxCell>
        <mxCell id="eE0-tFrMwfxBOJ-XWU5g-61" value="Iscrizione e gestione squadre" style="rounded=0;whiteSpace=wrap;html=1;" vertex="1" parent="1">
          <mxGeometry x="740" y="370" width="116" height="50" as="geometry" />
        </mxCell>
        <mxCell id="eE0-tFrMwfxBOJ-XWU5g-62" value="Creazione torneo" style="rounded=0;whiteSpace=wrap;html=1;" vertex="1" parent="1">
          <mxGeometry x="540" y="370" width="116" height="50" as="geometry" />
        </mxCell>
        <mxCell id="eE0-tFrMwfxBOJ-XWU5g-63" value="&lt;span style=&quot;color: rgba(0, 0, 0, 0); font-family: monospace; font-size: 0px; text-align: start; text-wrap-mode: nowrap;&quot;&gt;%3CmxGraphModel%3E%3Croot%3E%3CmxCell%20id%3D%220%22%2F%3E%3CmxCell%20id%3D%221%22%20parent%3D%220%22%2F%3E%3CmxCell%20id%3D%222%22%20value%3D%22Gestione%20fase%20finale%22%20style%3D%22rounded%3D0%3BwhiteSpace%3Dwrap%3Bhtml%3D1%3B%22%20vertex%3D%221%22%20parent%3D%221%22%3E%3CmxGeometry%20x%3D%22630%22%20y%3D%22685%22%20width%3D%22116%22%20height%3D%2250%22%20as%3D%22geometry%22%2F%3E%3C%2FmxCell%3E%3C%2Froot%3E%3C%2FmxGraphModel%3E&lt;/span&gt;Gestione fase finale" style="rounded=0;whiteSpace=wrap;html=1;" vertex="1" parent="1">
          <mxGeometry x="520" y="700" width="116" height="50" as="geometry" />
        </mxCell>
        <mxCell id="eE0-tFrMwfxBOJ-XWU5g-64" value="Generazione calendario" style="rounded=0;whiteSpace=wrap;html=1;" vertex="1" parent="1">
          <mxGeometry x="520" y="550" width="116" height="50" as="geometry" />
        </mxCell>
        <mxCell id="eE0-tFrMwfxBOJ-XWU5g-65" value="Visualizzazione risultati e classifiche" style="rounded=0;whiteSpace=wrap;html=1;" vertex="1" parent="1">
          <mxGeometry x="740" y="550" width="116" height="50" as="geometry" />
        </mxCell>
        <mxCell id="eE0-tFrMwfxBOJ-XWU5g-67" value="Esportazione PDF calendario" style="rounded=0;whiteSpace=wrap;html=1;" vertex="1" parent="1">
          <mxGeometry x="740" y="700" width="116" height="50" as="geometry" />
        </mxCell>
        <mxCell id="eE0-tFrMwfxBOJ-XWU5g-74" value="Refactoring codice e riuso componenti" style="rounded=0;whiteSpace=wrap;html=1;" vertex="1" parent="1">
          <mxGeometry x="1024" y="570" width="116" height="50" as="geometry" />
        </mxCell>
        <mxCell id="eE0-tFrMwfxBOJ-XWU5g-75" value="Performance e usabilità" style="rounded=0;whiteSpace=wrap;html=1;" vertex="1" parent="1">
          <mxGeometry x="810" y="630" width="116" height="50" as="geometry" />
        </mxCell>
        <mxCell id="eE0-tFrMwfxBOJ-XWU5g-76" value="Sanitizzazione input e protezione SQL" style="rounded=0;whiteSpace=wrap;html=1;" vertex="1" parent="1">
          <mxGeometry x="800" y="460" width="116" height="50" as="geometry" />
        </mxCell>
        <mxCell id="eE0-tFrMwfxBOJ-XWU5g-78" value="Controllo accessi e ruoli" style="rounded=0;whiteSpace=wrap;html=1;" vertex="1" parent="1">
          <mxGeometry x="1010" y="375" width="116" height="60" as="geometry" />
        </mxCell>
        <mxCell id="eE0-tFrMwfxBOJ-XWU5g-85" value="Backup e recovery" style="rounded=0;whiteSpace=wrap;html=1;" vertex="1" parent="1">
          <mxGeometry x="1320" y="585" width="116" height="60" as="geometry" />
        </mxCell>
        <mxCell id="eE0-tFrMwfxBOJ-XWU5g-86" value="Debug e correzione bug" style="rounded=0;whiteSpace=wrap;html=1;" vertex="1" parent="1">
          <mxGeometry x="1140" y="370" width="116" height="60" as="geometry" />
        </mxCell>
        <mxCell id="eE0-tFrMwfxBOJ-XWU5g-87" value="Deploy locale/server" style="rounded=0;whiteSpace=wrap;html=1;" vertex="1" parent="1">
          <mxGeometry x="1126" y="490" width="116" height="60" as="geometry" />
        </mxCell>
        <mxCell id="eE0-tFrMwfxBOJ-XWU5g-88" value="Test funzionali e utenti" style="rounded=0;whiteSpace=wrap;html=1;" vertex="1" parent="1">
          <mxGeometry x="1324" y="410" width="116" height="60" as="geometry" />
        </mxCell>
        <mxCell id="eE0-tFrMwfxBOJ-XWU5g-93" value="Manuale utente" style="rounded=0;whiteSpace=wrap;html=1;" vertex="1" parent="1">
          <mxGeometry x="1654" y="335" width="116" height="60" as="geometry" />
        </mxCell>
        <mxCell id="eE0-tFrMwfxBOJ-XWU5g-94" value="Video demo" style="rounded=0;whiteSpace=wrap;html=1;" vertex="1" parent="1">
          <mxGeometry x="1610" y="600" width="116" height="60" as="geometry" />
        </mxCell>
        <mxCell id="eE0-tFrMwfxBOJ-XWU5g-95" value="Slide presentazione finale" style="rounded=0;whiteSpace=wrap;html=1;" vertex="1" parent="1">
          <mxGeometry x="1670" y="455" width="116" height="60" as="geometry" />
        </mxCell>
        <mxCell id="eE0-tFrMwfxBOJ-XWU5g-96" value="Documentazione tecnica" style="rounded=0;whiteSpace=wrap;html=1;" vertex="1" parent="1">
          <mxGeometry x="1360" y="490" width="116" height="60" as="geometry" />
        </mxCell>
      </root>
    </mxGraphModel>
  </diagram>
</mxfile>
